<svg width="55" height="55" viewBox="0 0 55 55" fill="none" xmlns="http://www.w3.org/2000/svg">
<path d="M24.7773 27.5001C24.7773 28.222 25.0641 28.9144 25.5747 29.425C26.0852 29.9355 26.7776 30.2223 27.4996 30.2223C28.2215 30.2223 28.914 29.9355 29.4245 29.425C29.935 28.9144 30.2218 28.222 30.2218 27.5001C30.2218 26.7781 29.935 26.0857 29.4245 25.5752C28.914 25.0646 28.2215 24.7778 27.4996 24.7778C26.7776 24.7778 26.0852 25.0646 25.5747 25.5752C25.0641 26.0857 24.7773 26.7781 24.7773 27.5001Z" stroke="white" stroke-width="5.44444" stroke-linecap="round" stroke-linejoin="round"/>
<path d="M13.8887 27.4998C13.8887 31.1097 15.3227 34.5717 17.8753 37.1243C20.4279 39.6769 23.8899 41.1109 27.4998 41.1109C31.1097 41.1109 34.5717 39.6769 37.1243 37.1243C39.6769 34.5717 41.1109 31.1097 41.1109 27.4998C41.1109 23.8899 39.6769 20.4279 37.1243 17.8753C34.5717 15.3227 31.1097 13.8887 27.4998 13.8887C23.8899 13.8887 20.4279 15.3227 17.8753 17.8753C15.3227 20.4279 13.8887 23.8899 13.8887 27.4998Z" stroke="white" stroke-width="5.44444" stroke-linecap="round" stroke-linejoin="round"/>
<path d="M3 27.5C3 30.7174 3.63371 33.9033 4.86495 36.8757C6.09619 39.8482 7.90085 42.5491 10.1759 44.8241C12.4509 47.0992 15.1518 48.9038 18.1243 50.1351C21.0967 51.3663 24.2826 52 27.5 52C30.7174 52 33.9033 51.3663 36.8757 50.1351C39.8482 48.9038 42.5491 47.0992 44.8241 44.8241C47.0992 42.5491 48.9038 39.8482 50.1351 36.8757C51.3663 33.9033 52 30.7174 52 27.5C52 24.2826 51.3663 21.0967 50.1351 18.1243C48.9038 15.1518 47.0992 12.4509 44.8241 10.1759C42.5491 7.90085 39.8482 6.09619 36.8757 4.86495C33.9033 3.63371 30.7174 3 27.5 3C24.2826 3 21.0967 3.63371 18.1243 4.86495C15.1518 6.09619 12.4509 7.90085 10.1759 10.1759C7.90085 12.4509 6.09619 15.1518 4.86495 18.1243C3.63371 21.0967 3 24.2826 3 27.5Z" stroke="white" stroke-width="5.44444" stroke-linecap="round" stroke-linejoin="round"/>
</svg>
