<svg width="55" height="58" viewBox="0 0 55 58" fill="none" xmlns="http://www.w3.org/2000/svg">
<path d="M28.1207 12.6704L18.7258 18.0003C16.6066 19.204 15.5457 19.8058 15.2703 20.8361C14.9949 21.8664 15.612 22.9171 16.8463 25.0184L18.3637 27.6069C19.5674 29.6521 20.1667 30.6748 21.1766 30.9451C22.1864 31.2154 23.2167 30.6288 25.2824 29.4583L34.8074 24.0519M14.8929 21.6955L5.63058 26.9515C3.44506 28.1909 2.35358 28.8131 2.06796 29.8638C1.78233 30.9145 2.41223 31.9881 3.67203 34.1354C4.93183 36.2801 5.56172 37.3537 6.63281 37.6368C7.70389 37.9199 8.79537 37.2976 10.9783 36.0582L20.2432 30.7997M51.3301 10.1227L48.6549 5.56808C47.3951 3.42337 46.7652 2.34973 45.6967 2.06666C44.6256 1.78614 43.5341 2.40584 41.3486 3.64523L31.9562 8.97514C29.8345 10.1788 28.7761 10.7807 28.5007 11.811C28.2228 12.8438 28.8399 13.8945 30.0742 15.9933L32.9304 20.8591C34.1316 22.9043 34.7334 23.9269 35.7433 24.1973C36.7532 24.4676 37.7834 23.881 39.8465 22.7105L49.3715 17.3041C51.557 16.0647 52.6485 15.445 52.9341 14.3943C53.2198 13.3436 52.5899 12.27 51.3301 10.1227Z" stroke="white" stroke-width="3.82529" stroke-linejoin="round"/>
<path d="M37.7023 55.8914L27.5016 31.6646L17.3008 55.8914" stroke="white" stroke-width="3.82529" stroke-linecap="round"/>
</svg>
